<?xml version="1.0" standalone="no"?>
<!DOCTYPE svg PUBLIC "-//W3C//DTD SVG 1.1//EN" "http://www.w3.org/Graphics/SVG/1.1/DTD/svg11.dtd" >
<svg xmlns="http://www.w3.org/2000/svg">
<metadata></metadata>
<defs>
<font id="fontsite_sanslight" horiz-adv-x="1024" >
<font-face units-per-em="2048" ascent="1690" descent="-358" />
<missing-glyph horiz-adv-x="614" />
<glyph unicode="&#xfb01;" horiz-adv-x="935" d="M35 891v98h141v166q0 121 52.5 174t172.5 53q43 0 70 -4v-110q-35 6 -51 6q-68 0 -91.5 -26.5t-23.5 -102.5v-156h166v-98h-166v-891h-129v891h-141zM662 0v989h122v-989h-122zM662 1202v164h122v-164h-122z" />
<glyph unicode="&#xfb02;" horiz-adv-x="942" d="M35 891v98h141v166q0 121 52.5 174t172.5 53q43 0 70 -4v-110q-35 6 -51 6q-68 0 -91.5 -26.5t-23.5 -102.5v-156h166v-98h-166v-891h-129v891h-141zM662 0v1366h129v-1366h-129z" />
<glyph horiz-adv-x="2048" />
<glyph horiz-adv-x="2048" />
<glyph unicode="&#xd;" horiz-adv-x="681" />
<glyph unicode=" "  horiz-adv-x="614" />
<glyph unicode="&#x09;" horiz-adv-x="614" />
<glyph unicode="&#xa0;" horiz-adv-x="614" />
<glyph unicode="!" horiz-adv-x="491" d="M164 0v178h164v-178h-164zM174 913v453h143v-453l-26 -571h-90z" />
<glyph unicode="&#x22;" horiz-adv-x="636" d="M109 1366h141l-21 -547h-102zM389 1366h141l-20 -547h-100z" />
<glyph unicode="#" horiz-adv-x="1226" d="M125 481l10 72h260l33 235h-260l10 74h260l56 383h73l-53 -383h248l53 383h76l-55 -383h266l-10 -74h-267l-32 -235h266l-10 -72h-267l-57 -415h-76l58 415h-246l-60 -415h-73l57 415h-260zM471 553h246l35 235h-248z" />
<glyph unicode="$" horiz-adv-x="1146" d="M119 403h129q10 -281 274 -311v563q-111 25 -174 50q-193 72 -192 315q0 315 366 358v178h99v-178q158 -4 256 -96t108 -246h-123q-25 219 -241 238v-514q125 -31 186 -51q221 -78 221 -324q0 -176 -105.5 -279.5t-301.5 -119.5v-176h-99v176q-186 10 -293.5 121.5 t-109.5 295.5zM289 1028q0 -166 143 -221q23 -8 90 -27v494q-233 -31 -233 -246zM621 92q82 12 129 33q145 72 145 252q0 94 -43 149.5t-139 85.5l-92 25v-545z" />
<glyph unicode="%" horiz-adv-x="1396" d="M68 1022q0 170 58 260t169 90q229 0 229 -356q0 -168 -59 -257t-168 -89q-113 0 -171 90t-58 262zM170 1022q0 -270 127 -270q125 0 125 266q0 272 -127 272q-125 0 -125 -268zM217 0l864 1366h99l-863 -1366h-100zM872 346q0 170 58.5 260t169.5 90q229 0 229 -356 q0 -168 -59.5 -257t-167.5 -89q-113 0 -171.5 90t-58.5 262zM975 346q0 -270 127 -270q125 0 125 266q0 272 -127 272q-125 0 -125 -268z" />
<glyph unicode="&#x26;" horiz-adv-x="1249" d="M117 389q0 137 75.5 234.5t245.5 183.5l-16 24q-70 104 -92.5 152.5t-22.5 110.5q0 119 87 198.5t216 79.5q123 0 202 -75.5t79 -192.5q0 -106 -62.5 -185t-199.5 -147l332 -403q47 100 53 256h129q-18 -209 -101 -359l222 -266h-150l-143 166q-172 -186 -420 -186 q-193 0 -313.5 114.5t-120.5 294.5zM254 387q0 -127 88 -209t223 -82q184 0 326 166l-379 455q-258 -111 -258 -330zM436 1098q0 -86 121 -240l21 10q184 90 184 230q0 70 -44 113.5t-114 43.5q-72 0 -120 -46t-48 -111z" />
<glyph unicode="'" horiz-adv-x="360" d="M109 1366h143l-19 -547h-106z" />
<glyph unicode="(" horiz-adv-x="643" d="M106 530q0 467 279 836h96q-246 -354 -245 -811q0 -500 276 -889h-104q-158 221 -230 428t-72 436z" />
<glyph unicode=")" horiz-adv-x="643" d="M129 1366h104q303 -420 304 -864q0 -465 -281 -836h-96q248 352 248 811q0 502 -279 889z" />
<glyph unicode="*" horiz-adv-x="765" d="M88 1112l33 105l213 -76l-6 225h108l-6 -225l213 76l33 -105l-215 -63l137 -179l-88 -63l-127 184l-129 -184l-86 61l135 181z" />
<glyph unicode="+" d="M51 653v76h420v391h78v-391h422v-76h-422v-391h-78v391h-420z" />
<glyph unicode="," horiz-adv-x="475" d="M150 0v205h174v-223q0 -221 -174 -252v92q47 16 65 54t16 124h-81z" />
<glyph unicode="-" horiz-adv-x="495" d="M0 446v117h496v-117h-496z" />
<glyph unicode="." horiz-adv-x="475" d="M150 0v205h174v-205h-174z" />
<glyph unicode="/" horiz-adv-x="802" d="M82 0l516 1393h121l-516 -1393h-121z" />
<glyph unicode="0" horiz-adv-x="1146" d="M127 678q0 326 90 493q51 98 146.5 153.5t209.5 55.5q117 0 212.5 -55t146.5 -154q90 -172 90 -503q0 -313 -90 -486q-51 -98 -146.5 -153.5t-212.5 -55.5q-115 0 -210 55.5t-146 153.5q-90 174 -90 496zM264 678q0 -286 72 -436q33 -70 97.5 -111t141.5 -41 q309 0 310 580q0 301 -70 442q-33 70 -98.5 111t-143.5 41q-76 0 -140 -41t-97 -111q-72 -150 -72 -434z" />
<glyph unicode="1" horiz-adv-x="1146" d="M266 1022v88q170 2 252 61.5t96 194.5h103v-1366h-133v1022h-318z" />
<glyph unicode="2" horiz-adv-x="1146" d="M137 41q0 174 92 301q45 66 118 122t226 146q174 102 234.5 178t60.5 195q0 127 -71.5 198.5t-200.5 71.5q-285 0 -289 -331h-139q2 217 116.5 337.5t317.5 120.5q184 0 297 -106.5t113 -282.5q0 -166 -109 -286q-78 -86 -254 -189q-209 -121 -281.5 -197.5t-93.5 -201.5 h732v-117h-867q-2 18 -2 41z" />
<glyph unicode="3" horiz-adv-x="1146" d="M127 406h135q4 -150 87 -233t229 -83q133 0 220 83t87 210q0 135 -87 209t-249 74q-33 0 -74 -2v104q31 -2 70 -2q147 0 223 70q80 70 80 186q0 109 -76 175.5t-197 66.5q-133 0 -207.5 -79t-74.5 -216v-17h-131q2 199 113.5 313.5t299.5 114.5q178 0 290 -100t112 -258 q0 -190 -191 -297q236 -94 236 -330q0 -184 -127 -303t-324 -119q-243 0 -368 172q-76 104 -76 261z" />
<glyph unicode="4" horiz-adv-x="1146" d="M119 338v108l614 906h113v-906h190v-108h-190v-338h-127v338h-600zM254 446h465v302q0 233 6 411l-207 -315z" />
<glyph unicode="5" horiz-adv-x="1146" d="M131 352h133q14 -125 94 -193.5t209 -68.5q147 0 234.5 91t87.5 245q0 152 -86 243t-230 91q-186 0 -280 -137h-119l105 729h661v-129h-557l-64 -426q119 80 271 80q195 0 311.5 -121t116.5 -324q0 -207 -122 -333t-327 -126q-182 0 -298.5 100.5t-139.5 278.5z" />
<glyph unicode="6" horiz-adv-x="1146" d="M121 633q0 354 130 550.5t363 196.5q160 0 264.5 -95t120.5 -255h-135q-14 113 -79.5 173.5t-172.5 60.5q-197 0 -286 -203q-74 -164 -74 -367v-43q131 215 362 215q182 0 297 -121.5t115 -316.5q0 -199 -123 -327t-315 -128q-213 0 -336 158q-131 170 -131 502zM291 424 q0 -145 85 -239.5t218 -94.5q131 0 210 90t79 239.5t-80 240t-211 90.5q-129 0 -215 -93.5t-86 -232.5z" />
<glyph unicode="7" horiz-adv-x="1146" d="M152 1223v129h862v-117q-188 -193 -341 -547t-190 -688h-147q113 721 532 1223h-716z" />
<glyph unicode="8" horiz-adv-x="1146" d="M119 381q0 254 243 358q-188 96 -188 285q0 156 112.5 256t287 100t287 -100t112.5 -256q0 -190 -189 -285q244 -104 244 -360q0 -180 -127 -293t-327.5 -113t-327.5 114t-127 294zM256 385q0 -127 90 -211t227 -84q135 0 226.5 83t91.5 208q0 129 -90 213t-227.5 84 t-227.5 -83t-90 -210zM303 1024q0 -102 76.5 -171t193.5 -69q115 0 193 69t78 169q0 104 -77 173t-193.5 69t-193.5 -69t-77 -171z" />
<glyph unicode="9" horiz-adv-x="1146" d="M121 924q0 201 123 328.5t315 127.5q213 0 336 -157q131 -170 131 -502q0 -354 -130 -551t-364 -197q-160 0 -264.5 94.5t-120.5 254.5h134q14 -111 79.5 -171.5t174.5 -60.5q199 0 286 201q74 166 74 366v43q-131 -215 -363 -215q-182 0 -296.5 122t-114.5 317zM264 934 q0 -152 80 -242t211 -90q129 0 215 93t86 235q0 145 -85 239.5t-218 94.5q-131 0 -210 -90.5t-79 -239.5z" />
<glyph unicode=":" horiz-adv-x="475" d="M150 0v205h174v-205h-174zM150 784v205h174v-205h-174z" />
<glyph unicode=";" horiz-adv-x="475" d="M150 0v205h174v-223q0 -221 -174 -252v92q47 16 65 54t16 124h-81zM150 784v205h174v-205h-174z" />
<glyph unicode="&#x3c;" d="M68 627v116l886 410v-131l-745 -336l745 -338v-131z" />
<glyph unicode="=" d="M51 512v74h920v-74h-920zM51 797v73h920v-73h-920z" />
<glyph unicode="&#x3e;" d="M70 217v133l745 336l-745 336v131l886 -410v-116z" />
<glyph unicode="?" horiz-adv-x="960" d="M76 944v29q0 190 116.5 305t311.5 115q176 0 285.5 -100.5t109.5 -262.5q0 -92 -39 -164.5t-139 -163.5q-123 -111 -150.5 -165t-29.5 -195h-121q-2 18 -2 43q0 115 35.5 191.5t132.5 162.5q104 92 140 149.5t36 133.5q0 111 -75 182.5t-189 71.5q-174 0 -252 -148 q-35 -70 -35 -176v-8h-135zM401 0v178h164v-178h-164z" />
<glyph unicode="@" horiz-adv-x="1417" d="M63 657q0 287 200 488t485 201q256 0 431 -162t175 -397.5t-174 -380.5q-125 -106 -248 -107q-59 0 -96 30.5t-43 88.5q-103 -115 -224 -115q-90 0 -147 66.5t-57 173.5q0 184 118.5 334.5t264.5 150.5q133 0 184 -135l39 104h78l-166 -481q-20 -59 -21 -88q0 -76 86 -76 q102 0 207 101q139 133 139 331q0 215 -156.5 360.5t-387.5 145.5q-262 0 -442.5 -183t-180.5 -450q0 -260 176 -438t432 -178q164 0 308.5 83t218.5 218l61 -2q-53 -121 -160 -207q-190 -150 -428 -149q-281 0 -476.5 196.5t-195.5 476.5zM449 526q0 -80 36 -126t97 -46 q84 0 151 68q47 51 90 164l47 129q27 74 27 110q0 63 -39 107.5t-94 44.5q-117 0 -216 -142.5t-99 -308.5z" />
<glyph unicode="A" horiz-adv-x="1263" d="M27 0l528 1366h143l539 -1366h-141l-168 430h-600l-162 -430h-139zM369 539h516l-262 686z" />
<glyph unicode="B" horiz-adv-x="1282" d="M164 0v1366h553q209 0 303 -84q106 -94 106 -258q0 -213 -194 -299q254 -78 254 -338q0 -186 -121 -291q-109 -96 -340 -96h-561zM293 117h446q160 0 237 66.5t77 203.5t-77 202.5t-237 65.5h-446v-538zM293 764h407q162 0 236 76q61 66 61 166q0 102 -61 168 q-73 75 -232 75h-4h-407v-485z" />
<glyph unicode="C" horiz-adv-x="1363" d="M106 682q0 330 166 522.5t453 192.5q211 0 356.5 -111.5t186.5 -306.5h-142q-35 141 -143.5 221t-263.5 80q-219 0 -347 -163t-128 -441q0 -270 127 -430t344 -160q174 0 291.5 107.5t146.5 295.5h133q-37 -248 -187.5 -384t-385.5 -136q-281 0 -444 192.5t-163 520.5z " />
<glyph unicode="D" horiz-adv-x="1357" d="M164 0v1366h500q330 0 469 -211q121 -186 120 -467q0 -305 -143 -493q-78 -102 -188.5 -148.5t-286.5 -46.5h-471zM301 117h303q160 0 249 34.5t153 120.5q111 154 110 412q0 295 -119 436q-109 129 -342 129h-354v-1132z" />
<glyph unicode="E" horiz-adv-x="1179" d="M164 0v1366h913v-117h-776v-493h713v-109h-713v-530h793v-117h-930z" />
<glyph unicode="F" horiz-adv-x="1079" d="M164 0v1366h866v-117h-729v-485h637v-117h-637v-647h-137z" />
<glyph unicode="G" horiz-adv-x="1449" d="M106 680q0 324 175.5 520.5t466.5 196.5q223 0 366 -115t178 -319h-133q-35 152 -142.5 234.5t-268.5 82.5q-227 0 -365.5 -163t-138.5 -429q0 -268 135 -435t354 -167q125 0 225.5 57.5t155.5 159.5q61 113 72 285h-457v108h576v-696h-109v227q-94 -133 -206.5 -195.5 t-264.5 -62.5q-279 0 -449 194.5t-170 516.5z" />
<glyph unicode="H" horiz-adv-x="1349" d="M164 0v1366h137v-584h748v584h137v-1366h-137v666h-748v-666h-137z" />
<glyph unicode="I" horiz-adv-x="464" d="M164 0v1366h137v-1366h-137z" />
<glyph unicode="J" horiz-adv-x="944" d="M20 410v39h138v-39q0 -313 243 -314q242 0 242 314v956h137v-956q0 -430 -381 -430q-379 0 -379 430z" />
<glyph unicode="K" horiz-adv-x="1261" d="M164 0v1366h137v-704l743 704h179l-605 -559l617 -807h-168l-545 715l-221 -207v-508h-137z" />
<glyph unicode="L" horiz-adv-x="993" d="M164 0v1366h137v-1249h657v-117h-794z" />
<glyph unicode="M" horiz-adv-x="1583" d="M164 0v1366h172l457 -1219l460 1219h166v-1366h-129v362q0 543 10 809l-446 -1171h-127l-446 1186q12 -350 12 -735v-451h-129z" />
<glyph unicode="N" horiz-adv-x="1376" d="M164 0v1366h141l795 -1196q-10 184 -10 561v635h122v-1366h-141l-795 1200q8 -104 9 -215l2 -166v-168v-651h-123z" />
<glyph unicode="O" horiz-adv-x="1478" d="M106 681.5q0 319.5 174.5 517.5t456.5 198q289 0 462 -196.5t173 -526.5q0 -313 -176 -509t-457 -196q-285 0 -459 196.5t-174 516zM244 684q0 -270 136 -434t359 -164q221 0 358.5 163t137.5 427q0 270 -123 426q-66 84 -165 131t-210 47q-227 0 -370 -178 q-123 -154 -123 -418z" />
<glyph unicode="P" horiz-adv-x="1183" d="M164 0v1366h522q213 0 318 -90q113 -98 113 -293q0 -198 -113 -297q-104 -90 -318 -90h-385v-596h-137zM301 713h330q184 0 264 63q84 68 84 205t-84 205q-80 63 -264 63h-330v-536z" />
<glyph unicode="Q" horiz-adv-x="1478" d="M106 684q0 319 174.5 516t459 197t458.5 -196.5t174 -518.5q0 -342 -207 -549l174 -131l-69 -90l-193 151q-150 -94 -338 -94q-285 0 -459 196.5t-174 518.5zM244 684q0 -270 136 -434t359 -164q125 0 234 59l-142 111l66 84l168 -127q170 160 170 469q0 270 -136 434 t-359.5 164t-359.5 -164t-136 -432z" />
<glyph unicode="R" horiz-adv-x="1314" d="M164 0v1366h573q213 0 318 -84q112 -91 112 -271q0 -124 -51 -204t-164 -131q84 -35 124 -105.5t50 -197.5l13 -178q6 -78 22.5 -116t61.5 -79h-181q-29 63 -36 156l-13 155q-14 176 -71.5 241.5t-196.5 65.5h-424v-618h-137zM301 727h412q172 0 243 66q78 68 78 196 q0 127 -78 195q-71 65 -238 65h-5h-412v-522z" />
<glyph unicode="S" horiz-adv-x="1191" d="M82 453h137q4 -178 102.5 -272.5t282.5 -94.5q164 0 260.5 77t96.5 208q0 102 -66 159.5t-217 90.5l-246 53q-319 70 -319 344q0 174 127 276.5t346 102.5q223 0 346 -104.5t135 -305.5h-137q-6 125 -72 195q-98 98 -276 98q-152 0 -242 -71.5t-90 -190.5 q0 -90 53 -141.5t172 -77.5l256 -56q193 -41 270 -118q96 -90 97 -244q0 -186 -137.5 -299t-362.5 -113q-285 0 -426 178q-84 111 -90 306z" />
<glyph unicode="T" horiz-adv-x="1032" d="M14 1249v117h1006v-117h-434v-1249h-137v1249h-435z" />
<glyph unicode="U" horiz-adv-x="1335" d="M164 483v883h137v-893q0 -172 72 -258q102 -119 294.5 -119t295.5 119q72 86 71 258v893h137v-883q0 -131 -26.5 -215t-91.5 -149q-139 -139 -385 -139t-385 139q-66 66 -92.5 148.5t-26.5 215.5z" />
<glyph unicode="V" horiz-adv-x="1183" d="M27 1366h149l326 -940l41 -117l22 -67l33 -92l94 276l320 940h145l-491 -1366h-138z" />
<glyph unicode="W" horiz-adv-x="1712" d="M27 1366h139l199 -809q92 -383 98 -412l14 56l90 356l211 809h156l215 -795q45 -172 70 -258l47 -168q6 33 41 177l28 120l25 115l188 809h135l-342 -1366h-153l-244 885q-20 72 -37.5 140.5t-29 109.5t-25.5 88q-51 -215 -90 -361l-223 -862h-152z" />
<glyph unicode="X" horiz-adv-x="1124" d="M20 0l474 688l-459 678h160l370 -578l379 578h156l-465 -678l469 -688h-160l-381 590l-381 -590h-162z" />
<glyph unicode="Y" horiz-adv-x="1165" d="M0 1366h160l426 -647l420 647h157l-514 -768v-598h-129v598z" />
<glyph unicode="Z" horiz-adv-x="1171" d="M57 0v84l875 1165h-776v117h938v-117l-854 -1132h878v-117h-1061z" />
<glyph unicode="[" horiz-adv-x="628" d="M150 -334v1700h342v-109h-216v-1482h216v-109h-342z" />
<glyph unicode="\" horiz-adv-x="802" d="M86 1393h121l516 -1393h-121z" />
<glyph unicode="]" horiz-adv-x="628" d="M137 -225h215v1482h-215v109h342v-1700h-342v109z" />
<glyph unicode="^" d="M70 776l364 592h154l364 -592h-129l-313 502l-313 -502h-127z" />
<glyph unicode="_" d="M0 -152h1024v-90h-1024v90z" />
<glyph unicode="`" d="M262 1393h176l158 -260h-107z" />
<glyph unicode="a" horiz-adv-x="1052" d="M88 258q0 137 90 213q70 61 219 84l293 47q55 10 66.5 23.5t11.5 74.5q0 111 -57.5 159t-188.5 48q-129 0 -190.5 -52t-67.5 -167h-131q10 328 397 328q365 0 365 -297v-555q0 -84 51 -84q23 0 60 12v-96q-51 -12 -93 -12q-102 0 -133 82q-8 25 -8 79 q-125 -172 -358 -172q-152 0 -239 77t-87 208zM217 262q0 -84 58.5 -135t158.5 -51q188 0 289 143q49 72 49 180v113l-354 -61q-201 -33 -201 -189z" />
<glyph unicode="b" horiz-adv-x="1124" d="M150 0v1366h122v-537q125 186 334 187q193 0 308.5 -139.5t115.5 -372.5q0 -242 -119.5 -386.5t-318.5 -144.5t-320 183v-156h-122zM272 500q0 -199 83 -308.5t235 -109.5q150 0 233.5 109.5t83.5 302.5q0 195 -84 304t-233 109q-147 0 -232.5 -109.5t-85.5 -297.5z" />
<glyph unicode="c" horiz-adv-x="1013" d="M94 492q0 238 124 381t329 143q162 0 267.5 -90t125.5 -244h-125q-18 106 -91 165.5t-183 59.5q-150 0 -237 -109.5t-87 -295.5q0 -193 88 -306.5t240 -113.5q115 0 187.5 68.5t92.5 195.5h119q-27 -176 -134.5 -274.5t-270.5 -98.5q-203 0 -324 141.5t-121 377.5z" />
<glyph unicode="d" horiz-adv-x="1122" d="M94 496q0 231 120 375.5t314 144.5q197 0 320 -172v522h123v-1366h-123v143q-123 -170 -319.5 -170t-315.5 143.5t-119 379.5zM217 496q0 -195 84 -304.5t231 -109.5q145 0 230.5 109.5t85.5 297.5q0 197 -83 307.5t-233 110.5q-147 0 -231 -109.5t-84 -301.5z" />
<glyph unicode="e" horiz-adv-x="1052" d="M94 489q0 236 122 381.5t319 145.5q143 0 247.5 -76t143.5 -205q32 -103 32 -251v-9h-741q6 -186 92 -289.5t234 -103.5q215 0 291 227h124q-104 -336 -419 -336q-205 0 -325 139t-120 377zM223 573h611q-10 158 -87 246t-208 88q-129 0 -211 -86t-105 -248z" />
<glyph unicode="f" horiz-adv-x="512" d="M35 891v98h141v166q0 121 52.5 174t172.5 53q43 0 70 -4v-110q-35 6 -51 6q-68 0 -91.5 -26.5t-23.5 -102.5v-156h166v-98h-166v-891h-129v891h-141z" />
<glyph unicode="g" horiz-adv-x="1126" d="M94 512q0 219 125 361.5t318 142.5q205 0 323 -172v145h117v-878q0 -125 -22.5 -200t-75.5 -130q-121 -121 -340 -121q-166 0 -269.5 71.5t-113.5 192.5h129q18 -155 255 -155h3q317 0 317 323v92q-135 -168 -327.5 -168t-315.5 138.5t-123 357.5zM223 516 q0 -174 88.5 -282.5t231.5 -108.5q141 0 229 107.5t88 277.5q0 182 -87 289.5t-232 107.5q-141 0 -229.5 -108.5t-88.5 -282.5z" />
<glyph unicode="h" horiz-adv-x="1062" d="M150 0v1366h122v-504q109 154 308 154q182 0 272 -113q61 -76 61 -246v-657h-122v641q0 123 -39 182q-55 84 -187 84q-127 0 -210 -85t-83 -216v-606h-122z" />
<glyph unicode="i" horiz-adv-x="423" d="M150 0v989h122v-989h-122zM150 1202v164h122v-164h-122z" />
<glyph unicode="j" horiz-adv-x="423" d="M-18 -215h47q76 0 99.5 33t23.5 135v1036h122v-1044q0 -84 -8 -121t-33 -70q-48 -67 -170 -67h-4h-77v98zM152 1202v164h122v-164h-122z" />
<glyph unicode="k" horiz-adv-x="999" d="M150 0v1366h122v-844l504 467h164l-405 -371l421 -618h-149l-361 545l-174 -160v-385h-122z" />
<glyph unicode="l" horiz-adv-x="430" d="M150 0v1366h129v-1366h-129z" />
<glyph unicode="m" horiz-adv-x="1626" d="M150 0v989h122v-127q96 154 289 154q219 0 287 -176q102 176 315 176q160 0 246 -96q39 -43 53.5 -93.5t14.5 -148.5v-678h-123v678q0 229 -211 229q-147 0 -217 -106q-49 -78 -49 -226v-575h-123v678q0 113 -41 162q-54 67 -161 67h-3q-127 0 -202 -81t-75 -218v-608 h-122z" />
<glyph unicode="n" horiz-adv-x="1056" d="M150 0v989h122v-139q59 88 131 127t179 39q170 0 260 -103q66 -78 65 -237v-676h-123v647q0 137 -47 193q-56 67 -167 67h-3q-133 0 -215 -86q-80 -80 -80 -239v-582h-122z" />
<glyph unicode="o" horiz-adv-x="1099" d="M94 496q0 233 125 376.5t330 143.5q209 0 333 -143.5t124 -385.5q0 -229 -126 -371.5t-329 -142.5q-205 0 -331 143.5t-126 379.5zM223 496q0 -188 89 -301t236.5 -113t238 111.5t90.5 295.5q0 193 -88.5 305.5t-239.5 112.5q-147 0 -236.5 -112.5t-89.5 -298.5z" />
<glyph unicode="p" horiz-adv-x="1120" d="M150 -313v1302h122v-141q127 168 324 168q195 0 311.5 -139.5t116.5 -368.5q0 -238 -120 -386.5t-312 -148.5q-100 0 -173 39t-147 133v-458h-122zM272 500q0 -197 83 -307.5t233 -110.5q145 0 229 110.5t84 303.5q0 190 -84 300.5t-229.5 110.5t-230.5 -109.5 t-85 -297.5z" />
<glyph unicode="q" horiz-adv-x="1122" d="M94 489q0 240 120 383.5t321 143.5q207 0 315 -178v151h123v-1302h-123v471q-113 -184 -334 -185q-193 0 -307.5 139t-114.5 377zM217 496q0 -188 86.5 -301t231.5 -113q143 0 229 111.5t86 295.5q0 193 -82 302q-87 116 -233 116h-3q-143 0 -229 -112.5t-86 -298.5z" />
<glyph unicode="r" horiz-adv-x="638" d="M150 0v989h122l-6 -178q53 104 118 148.5t165 44.5q25 0 41 -3v-122q-12 2 -29 2q-137 0 -223 -121q-66 -88 -66 -238v-522h-122z" />
<glyph unicode="s" horiz-adv-x="964" d="M92 315h129q12 -233 277 -233q113 0 180 51t67 137q0 115 -159 154l-238 57q-229 55 -229 252q0 131 98 207t268 76t266.5 -80t104.5 -231h-123q-35 202 -250 202h-2q-111 0 -172 -45t-61 -123q0 -111 147 -145l246 -59q121 -29 177 -88.5t56 -159.5q0 -141 -104 -227.5 t-278 -86.5q-226 0 -330 129q-63 76 -70 213z" />
<glyph unicode="t" horiz-adv-x="518" d="M41 891v98h141v289h129v-289h154v-98h-154v-698q0 -53 14.5 -72t53.5 -19q35 0 86 13v-113q-74 -16 -121 -16q-90 0 -126 43.5t-36 152.5v709h-141z" />
<glyph unicode="u" horiz-adv-x="1056" d="M150 313v676h122v-647q0 -137 47 -192q57 -68 170 -68q133 0 216 86q80 80 79 240v581h123v-989h-123v139q-59 -88 -130.5 -127t-178.5 -39q-170 1 -260 103q-66 78 -65 237z" />
<glyph unicode="v" horiz-adv-x="917" d="M14 989h142l190 -524l117 -318q33 86 51 142q6 14 13.5 35.5t11.5 33t6 15.5q4 14 16 45t19 47l186 524h137l-381 -989h-129z" />
<glyph unicode="w" horiz-adv-x="1353" d="M14 989h136l196 -667q23 -82 37 -164q12 66 39 164l192 667h125l183 -667q23 -82 36 -164q25 119 39 164l207 667h137l-329 -989h-119l-176 637q-31 115 -45 188q-23 -106 -47 -188l-181 -637h-122z" />
<glyph unicode="x" horiz-adv-x="911" d="M6 0l379 516l-340 473h148l264 -375l266 375h149l-344 -473l377 -516h-149l-301 422l-299 -422h-150z" />
<glyph unicode="y" horiz-adv-x="905" d="M14 989h133l236 -616q49 -131 72 -238q12 59 80 240l229 614h129l-438 -1118q-47 -121 -99.5 -166t-146.5 -45q-35 0 -86 8v107q49 -6 70 -6q51 0 83.5 27.5t61.5 99.5l53 131z" />
<glyph unicode="z" horiz-adv-x="884" d="M59 0v90l613 793h-568v106h719v-96l-606 -787h633v-106h-791z" />
<glyph unicode="{" d="M295 459v98q66 20 92.5 64.5t26.5 130.5v368q0 137 57 203q66 72 242 72h24v-115q-111 -4 -151.5 -46t-40.5 -149v-352q0 -94 -24.5 -144t-86.5 -83q61 -33 86 -85t25 -149v-338q0 -115 41 -157.5t151 -46.5v-109q-10 -2 -20 -2q-188 0 -250 78q-53 67 -53 229v334 q0 90 -27 134t-92 65z" />
<glyph unicode="|" d="M446 -342v1708h134v-1708h-134z" />
<glyph unicode="}" d="M287 -264q111 4 151.5 46t40.5 148v351q0 96 24.5 146t86.5 83q-61 33 -86 85t-25 148v336q0 117 -40 159t-152 46v111q193 0 252 -58q72 -66 71 -247v-336q0 -90 27 -133t92 -64v-100q-63 -18 -91 -62.5t-28 -130.5v-368q0 -139 -57 -205q-66 -72 -242 -72q-12 0 -24 2 v115z" />
<glyph unicode="~" horiz-adv-x="1366" d="M195 1257q106 219 272 220q74 0 238 -82q137 -70 198 -70q106 0 197 156l74 -56q-100 -219 -283 -219q-45 0 -87 15.5t-171 81.5q-109 55 -172 55q-105 0 -193 -158z" />
<glyph unicode="&#xa1;" horiz-adv-x="491" d="M164 811v178h164v-178h-164zM174 78l27 571h90l26 -571v-453h-143v453z" />
<glyph unicode="&#xa2;" horiz-adv-x="1146" d="M147 684q0 217 104.5 357.5t283.5 164.5v176h92v-172q152 -8 252 -100t114 -236h-123q-14 94 -78.5 155t-164.5 71v-824q104 10 171.5 79t82.5 184h118q-23 -162 -122 -262.5t-250 -110.5v-184h-92v188q-180 20 -284 157.5t-104 356.5zM270 694q0 -172 69 -278t196 -135 v815q-127 -27 -196 -130.5t-69 -271.5z" />
<glyph unicode="&#xa3;" horiz-adv-x="1146" d="M109 61q225 139 225 340q0 106 -58 222h-167v92h133l-11 26q-39 104 -50 144.5t-11 93.5q0 176 123 288.5t313 112.5q244 0 357 -190q45 -80 59 -234h-135q-2 147 -76 227.5t-207 80.5q-129 0 -213 -78t-84 -197q0 -106 80 -274h352v-92h-321q35 -119 35 -191 q0 -74 -31 -141.5t-109 -163.5q86 29 150 29q61 0 168 -29q125 -33 172 -33q82 0 170 72l65 -105q-115 -88 -245 -88q-51 0 -189 41q-117 37 -192 37q-109 0 -240 -78z" />
<glyph unicode="&#xa4;" horiz-adv-x="1398" d="M143 1178l74 73l189 -190q150 106 292 106q80 0 144.5 -23.5t146.5 -82.5l191 188l71 -71l-188 -189q104 -139 104 -291q0 -137 -100 -286l186 -189l-71 -73l-189 188q-135 -104 -286 -105q-141 0 -299 105l-187 -186l-71 71l182 189q-102 133 -103 290q0 137 105 287z M348 700q0 -145 102.5 -248.5t248 -103.5t248 103.5t102.5 249t-102.5 250t-244.5 104.5q-150 0 -252 -102.5t-102 -252.5z" />
<glyph unicode="&#xa5;" horiz-adv-x="1146" d="M55 1366h160l180 -334h324l178 334h158l-187 -334h164v-92h-217l-139 -250h274v-92h-327v-598h-129v598h-334v92h280l-141 250h-221v92h168zM446 940l113 -207l111 207h-224z" />
<glyph unicode="&#xa6;" d="M446 313h134v-655h-134v655zM446 688v678h134v-678h-134z" />
<glyph unicode="&#xa7;" horiz-adv-x="1189" d="M150 639q0 176 178 272q-72 86 -72 191q0 129 92 210t240 81q152 0 243 -86t107 -244h-137q-25 207 -215 207q-84 0 -138.5 -47t-54.5 -119q0 -53 30 -92t105 -84l273 -162q133 -80 186 -150.5t53 -169.5q0 -174 -182 -268q82 -104 82 -205q0 -133 -100.5 -223 t-247.5 -90q-205 0 -305 145q-54 76 -60 205h135q12 -109 73 -168t157 -59q90 0 150.5 53t60.5 133q0 57 -33 99.5t-117 93.5l-239 141q-143 84 -203.5 162t-60.5 174zM287 655q0 -74 56 -132t222 -152l209 -119q129 74 129 186q0 61 -41 110.5t-143 108.5l-307 181 q-125 -66 -125 -183z" />
<glyph unicode="&#xa8;" d="M279 1174v178h129v-178h-129zM616 1174v178h129v-178h-129z" />
<glyph unicode="&#xa9;" horiz-adv-x="1607" d="M98 682q0 297 208 502t507 205q285 0 489.5 -208t204.5 -499q0 -293 -206.5 -499t-497.5 -206t-498 207t-207 498zM174 682q0 -262 184.5 -448.5t444.5 -186.5t444.5 186.5t184.5 450.5q0 260 -183.5 447.5t-437.5 187.5q-266 0 -451.5 -184.5t-185.5 -452.5zM418 684 q0 188 110.5 305t286.5 117q139 0 240.5 -80t113.5 -201h-73q-20 94 -96 148.5t-185 54.5q-137 0 -222 -95t-85 -249t83 -248t220 -94q123 0 203 70.5t96 193.5h72q-10 -154 -113.5 -248t-257.5 -94q-176 0 -284.5 117t-108.5 303z" />
<glyph unicode="&#xaa;" horiz-adv-x="688" d="M63 707q0 76 48.5 119.5t150.5 60.5l180 28q33 4 38 11.5t5 40.5q0 63 -33.5 89.5t-111.5 26.5t-114 -30.5t-38 -100.5h-96q2 209 252 209q236 0 236 -184v-328q0 -41 24 -41q10 0 45 10v-71q-41 -10 -65 -10q-84 0 -97 79q-92 -86 -213 -86q-96 0 -153.5 47.5 t-57.5 129.5zM160 709q0 -47 34 -76t91 -29q90 0 146 51.5t56 132.5v58l-211 -33q-117 -18 -116 -104z" />
<glyph unicode="&#xab;" horiz-adv-x="915" d="M96 453v108l332 283v-146l-231 -192l231 -191v-145zM467 449v110l332 283v-148l-232 -190l232 -191v-147z" />
<glyph unicode="&#xac;" d="M68 446v117h886v-563h-129v446h-757z" />
<glyph unicode="&#xad;" horiz-adv-x="495" d="M0 446v117h496v-117h-496z" />
<glyph unicode="&#xae;" horiz-adv-x="1607" d="M98 682q0 297 207 502t506 205q287 0 491.5 -208t204.5 -499q0 -293 -206.5 -499t-497.5 -206t-498 207t-207 498zM174 682q0 -262 184.5 -448.5t444.5 -186.5t444.5 186.5t184.5 448.5q0 260 -183.5 448.5t-437.5 188.5q-266 0 -451.5 -184.5t-185.5 -452.5zM500 270 v809h340q137 0 209.5 -57t72.5 -164q0 -143 -149 -196q80 -27 106.5 -77t30.5 -182q2 -94 25 -133h-88q-18 27 -23 150q-4 86 -15.5 120.5t-41.5 55.5q-51 33 -164 33h-215v-359h-88zM588 690h217q229 0 229 164q0 162 -211 162h-235v-326z" />
<glyph unicode="&#xaf;" d="M221 1208v109h580v-109h-580z" />
<glyph unicode="&#xb0;" d="M229 1073q0 119 83 201t202 82t201 -83t82 -202q0 -115 -84 -199t-199 -84q-119 0 -202 83t-83 202zM297 1073q0 -90 64.5 -153.5t152.5 -63.5q86 0 150.5 63.5t64.5 149.5q0 92 -63.5 156.5t-155.5 64.5q-86 0 -149.5 -64.5t-63.5 -152.5z" />
<glyph unicode="&#xb1;" d="M51 127v76h920v-76h-920zM51 680v76h420v391h78v-391h422v-76h-422v-387h-78v387h-420z" />
<glyph unicode="&#xb2;" horiz-adv-x="737" d="M86 547v31q0 104 57 182q53 68 217 160q106 57 142.5 101t36.5 112q0 72 -43 112.5t-119 40.5q-172 0 -172 -188v-8h-103q2 135 75 209.5t202 74.5q119 0 190.5 -65.5t71.5 -171.5q0 -90 -49 -151.5t-178 -133.5q-127 -70 -171 -112t-59 -111h453v-82h-551z" />
<glyph unicode="&#xb3;" horiz-adv-x="737" d="M53 788q0 6 2 11h97q2 -90 50 -139.5t138 -49.5q80 0 132 47.5t52 120.5q0 162 -202 162q-27 0 -52 -2v76q25 -2 54 -2q84 0 131 37.5t47 105.5q0 61 -45 99t-119 38q-80 0 -124 -45t-44 -125q0 -8 2 -14h-96q2 125 71.5 195.5t192.5 70.5q113 0 184.5 -61.5t71.5 -157.5 q0 -115 -111 -172q137 -57 138 -199q0 -111 -81 -183.5t-206 -72.5t-204 73t-79 187z" />
<glyph unicode="&#xb4;" d="M414 1133l157 260h177l-228 -260h-106z" />
<glyph unicode="&#xb5;" d="M113 -338v1321h114v-565q0 -109 15.5 -163t58.5 -99q80 -86 199 -86q131 0 214 103t83 267v543h114v-983h-114v199q-90 -227 -299 -228q-173 0 -271 158v-467h-114z" />
<glyph unicode="&#xb6;" horiz-adv-x="1107" d="M47 999q0 100 46 183.5t128 128.5q94 55 268 55h478v-63h-123v-1534h-76v1534h-231v-1534h-76v870h-35q-166 0 -272.5 101.5t-106.5 258.5z" />
<glyph unicode="&#xb7;" horiz-adv-x="475" d="M150 403v205h174v-205h-174z" />
<glyph unicode="&#xb8;" d="M434 -68h158v-139q0 -98 -34 -145t-124 -74v82q76 25 70 113h-70v163z" />
<glyph unicode="&#xb9;" horiz-adv-x="737" d="M137 1149v65q109 0 159 35t58 117h76v-819h-96v602h-197z" />
<glyph unicode="&#xba;" horiz-adv-x="716" d="M68 846q0 141 79.5 228t210.5 87t211 -87t80 -232q0 -137 -81 -224.5t-210 -87.5q-131 0 -210.5 87.5t-79.5 228.5zM164 845.5q0 -108.5 53 -173t141 -64.5t141.5 64.5t53.5 171.5q0 111 -52 175t-142.5 64t-142.5 -64.5t-52 -173z" />
<glyph unicode="&#xbb;" horiz-adv-x="915" d="M117 170v145l231 191l-231 192v146l332 -283v-108zM487 166v147l232 191l-232 190v148l332 -283v-110z" />
<glyph unicode="&#xbc;" horiz-adv-x="1753" d="M137 1149v65q109 0 159 35t58 117h76v-819h-96v602h-197zM395 0l865 1366h98l-862 -1366h-101zM1092 199v73l383 539h79v-535h119v-77h-119v-199h-92v199h-370zM1194 276h268v173l2 219l-114 -168z" />
<glyph unicode="&#xbd;" horiz-adv-x="1753" d="M137 1149v65q109 0 159 35t58 117h76v-819h-96v602h-197zM395 0l865 1366h98l-862 -1366h-101zM1104 0v31q0 104 57 182q31 41 76 73.5t141 86.5q104 59 141 103t37 112q0 72 -43 111.5t-118 39.5q-172 0 -172 -186v-8h-103q2 133 75 207.5t202 74.5q119 0 190.5 -64.5 t71.5 -170.5q0 -90 -49 -152.5t-178 -134.5q-127 -72 -171 -113.5t-59 -109.5h453v-82h-551z" />
<glyph unicode="&#xbe;" horiz-adv-x="1753" d="M53 788q0 6 2 11h97q2 -90 50 -139.5t138 -49.5q80 0 132 47.5t52 120.5q0 162 -202 162q-27 0 -52 -2v76q25 -2 54 -2q84 0 131 37.5t47 105.5q0 61 -45 99t-119 38q-80 0 -124 -45t-44 -125q0 -8 2 -14h-96q2 125 71.5 195.5t192.5 70.5q113 0 184.5 -61.5t71.5 -157.5 q0 -115 -111 -172q137 -57 138 -199q0 -111 -81 -183.5t-206 -72.5t-204 73t-79 187zM395 0l865 1366h98l-862 -1366h-101zM1092 199v73l383 539h79v-535h119v-77h-119v-199h-92v199h-370zM1194 276h268v173l2 219l-114 -168z" />
<glyph unicode="&#xbf;" horiz-adv-x="960" d="M61 -41q0 92 39 165t140 163q125 113 151.5 167t28.5 195h123v-45q0 -115 -37 -191.5t-131 -160.5q-104 -94 -140 -151.5t-36 -131.5q0 -111 74.5 -182.5t189.5 -71.5q96 0 170 51.5t100 135.5q14 49 17 143h135v-29q0 -190 -117 -303.5t-311 -113.5q-176 0 -286 99 t-110 261zM395 811v178h164v-178h-164z" />
<glyph unicode="&#xc0;" horiz-adv-x="1263" d="M27 0l528 1366h143l539 -1366h-141l-168 430h-600l-162 -430h-139zM369 539h516l-262 686zM377 1724h164l139 -254h-98z" />
<glyph unicode="&#xc1;" horiz-adv-x="1263" d="M27 0l528 1366h143l539 -1366h-141l-168 430h-600l-162 -430h-139zM369 539h516l-262 686zM590 1470l139 254h164l-205 -254h-98z" />
<glyph unicode="&#xc2;" horiz-adv-x="1263" d="M27 0l528 1366h143l539 -1366h-141l-168 430h-600l-162 -430h-139zM336 1468l217 258h141l219 -258h-139l-149 181l-152 -181h-137zM369 539h516l-262 686z" />
<glyph unicode="&#xc3;" horiz-adv-x="1263" d="M27 0l528 1366h143l539 -1366h-141l-168 430h-600l-162 -430h-139zM348 1513q18 180 146 181q33 0 69 -13l168 -53q39 -12 53 -12q45 0 64 70h94q-8 -84 -49 -134.5t-100 -50.5q-31 0 -88 19l-154 51q-25 8 -45 8q-49 0 -62 -66h-96zM369 539h516l-262 686z" />
<glyph unicode="&#xc4;" horiz-adv-x="1263" d="M27 0l528 1366h143l539 -1366h-141l-168 430h-600l-162 -430h-139zM315 1507v179h150v-179h-150zM369 539h516l-262 686zM786 1507v179h150v-179h-150z" />
<glyph unicode="&#xc5;" horiz-adv-x="1263" d="M27 0l528 1366h143l539 -1366h-141l-168 430h-600l-162 -430h-139zM369 539h516l-262 686zM487 1597.5q0 61.5 44 105.5t106 44q63 0 107 -44t44 -108q0 -59 -45 -103t-104 -44q-63 0 -107.5 44t-44.5 105.5zM563 1597q0 -29 22.5 -51t53.5 -22q29 0 51.5 21.5t22.5 52 t-21.5 52t-52.5 21.5t-53.5 -21.5t-22.5 -52.5z" />
<glyph unicode="&#xc6;" horiz-adv-x="1851" d="M27 0l526 1366h1194v-117h-774v-493h710v-109h-710v-530h792v-117h-929v424h-514l-160 -424h-135zM362 532h474v717h-203z" />
<glyph unicode="&#xc7;" horiz-adv-x="1363" d="M106 682q0 330 166 522.5t453 192.5q211 0 356.5 -111.5t186.5 -306.5h-142q-35 141 -143.5 221t-263.5 80q-219 0 -347 -163t-128 -441q0 -270 127 -430t344 -160q174 0 291.5 107.5t146.5 295.5h133q-37 -248 -187.5 -384t-385.5 -136q-281 0 -444 192.5t-163 520.5z M631 -68h157v-139q0 -98 -33.5 -145t-123.5 -74v82q76 25 69 113h-69v163z" />
<glyph unicode="&#xc8;" horiz-adv-x="1179" d="M164 0v1366h913v-117h-776v-493h713v-109h-713v-530h793v-117h-930zM389 1724h164l139 -254h-98z" />
<glyph unicode="&#xc9;" horiz-adv-x="1179" d="M164 0v1366h913v-117h-776v-493h713v-109h-713v-530h793v-117h-930zM567 1470l140 254h163l-204 -254h-99z" />
<glyph unicode="&#xca;" horiz-adv-x="1179" d="M164 0v1366h913v-117h-776v-493h713v-109h-713v-530h793v-117h-930zM348 1468l217 258h142l219 -258h-140l-149 181l-152 -181h-137z" />
<glyph unicode="&#xcb;" horiz-adv-x="1179" d="M164 0v1366h913v-117h-776v-493h713v-109h-713v-530h793v-117h-930zM328 1507v179h149v-179h-149zM799 1507v179h149v-179h-149z" />
<glyph unicode="&#xcc;" horiz-adv-x="464" d="M-23 1724h164l140 -254h-99zM164 0v1366h137v-1366h-137z" />
<glyph unicode="&#xcd;" horiz-adv-x="464" d="M164 0v1366h137v-1366h-137zM197 1470l139 254h164l-205 -254h-98z" />
<glyph unicode="&#xce;" horiz-adv-x="464" d="M-49 1468l217 258h141l219 -258h-139l-149 181l-152 -181h-137zM164 0v1366h137v-1366h-137z" />
<glyph unicode="&#xcf;" horiz-adv-x="464" d="M-39 1507v179h135v-179h-135zM164 0v1366h137v-1366h-137zM383 1507v179h135v-179h-135z" />
<glyph unicode="&#xd0;" horiz-adv-x="1357" d="M72 647v109h92v610h500q330 0 469 -211q121 -186 120 -467q0 -305 -143 -493q-78 -102 -188.5 -148.5t-286.5 -46.5h-471v647h-92zM301 117h303q160 0 249 34.5t153 120.5q111 150 110 412q0 295 -119 436q-109 129 -342 129h-354v-493h387v-109h-387v-530z" />
<glyph unicode="&#xd1;" horiz-adv-x="1376" d="M164 0v1366h141l795 -1196q-10 184 -10 561v635h122v-1366h-141l-795 1200q8 -104 9 -215l2 -166v-168v-651h-123zM432 1513q18 180 146 181q33 0 69 -13l168 -53q39 -12 53 -12q45 0 64 70h94q-8 -84 -49 -134.5t-100 -50.5q-31 0 -89 19l-153 51q-25 8 -45 8 q-49 0 -62 -66h-96z" />
<glyph unicode="&#xd2;" horiz-adv-x="1478" d="M106 681.5q0 319.5 174.5 517.5t456.5 198q289 0 462 -196.5t173 -526.5q0 -313 -176 -509t-457 -196q-285 0 -459 196.5t-174 516zM244 684q0 -270 136 -434t359 -164q221 0 358.5 163t137.5 427q0 270 -123 426q-66 84 -165 131t-210 47q-227 0 -370 -178 q-123 -154 -123 -418zM492 1724h163l140 -254h-99z" />
<glyph unicode="&#xd3;" horiz-adv-x="1478" d="M106 681.5q0 319.5 174.5 517.5t456.5 198q289 0 462 -196.5t173 -526.5q0 -313 -176 -509t-457 -196q-285 0 -459 196.5t-174 516zM244 684q0 -270 136 -434t359 -164q221 0 358.5 163t137.5 427q0 270 -123 426q-66 84 -165 131t-210 47q-227 0 -370 -178 q-123 -154 -123 -418zM702 1470l140 254h164l-205 -254h-99z" />
<glyph unicode="&#xd4;" horiz-adv-x="1478" d="M106 681.5q0 319.5 174.5 517.5t456.5 198q289 0 462 -196.5t173 -526.5q0 -313 -176 -509t-457 -196q-285 0 -459 196.5t-174 516zM244 684q0 -270 136 -434t359 -164q221 0 358.5 163t137.5 427q0 270 -123 426q-66 84 -165 131t-210 47q-227 0 -370 -178 q-123 -154 -123 -418zM463 1468l217 258h141l219 -258h-139l-149 181l-152 -181h-137z" />
<glyph unicode="&#xd5;" horiz-adv-x="1478" d="M106 681.5q0 319.5 174.5 517.5t456.5 198q289 0 462 -196.5t173 -526.5q0 -313 -176 -509t-457 -196q-285 0 -459 196.5t-174 516zM244 684q0 -270 136 -434t359 -164q221 0 358.5 163t137.5 427q0 270 -123 426q-66 84 -165 131t-210 47q-227 0 -370 -178 q-123 -154 -123 -418zM469 1513q18 180 145 181q33 0 70 -13l168 -53q39 -12 53 -12q45 0 64 70h94q-8 -84 -49 -134.5t-101 -50.5q-31 0 -88 19l-153 51q-25 8 -45 8q-49 0 -62 -66h-96z" />
<glyph unicode="&#xd6;" horiz-adv-x="1478" d="M106 681.5q0 319.5 174.5 517.5t456.5 198q289 0 462 -196.5t173 -526.5q0 -313 -176 -509t-457 -196q-285 0 -459 196.5t-174 516zM244 684q0 -270 136 -434t359 -164q221 0 358.5 163t137.5 427q0 270 -123 426q-66 84 -165 131t-210 47q-227 0 -370 -178 q-123 -154 -123 -418zM442 1507v179h150v-179h-150zM913 1507v179h150v-179h-150z" />
<glyph unicode="&#xd7;" d="M129 362l330 330l-328 326l53 53l326 -328l330 330l53 -53l-330 -330l330 -328l-53 -53l-328 330l-330 -330z" />
<glyph unicode="&#xd8;" horiz-adv-x="1478" d="M88 35l156 176q-137 193 -138 473q0 319 174.5 516t458.5 197q252 0 420 -158l156 174l76 -67l-164 -183q145 -186 145 -481q0 -319 -174 -516t-459 -197q-256 0 -430 168l-147 -168zM244 682q0 -215 90 -371l741 832q-137 137 -336 137q-223 0 -359 -164t-136 -434z M393 231q135 -145 346 -145q223 0 359.5 164t136.5 432q0 231 -96 383z" />
<glyph unicode="&#xd9;" horiz-adv-x="1335" d="M164 483v883h137v-893q0 -172 72 -258q102 -119 294.5 -119t295.5 119q72 86 71 258v893h137v-883q0 -131 -26.5 -215t-91.5 -149q-139 -139 -385 -139t-385 139q-66 66 -92.5 148.5t-26.5 215.5zM440 1724h164l139 -254h-98z" />
<glyph unicode="&#xda;" horiz-adv-x="1335" d="M164 483v883h137v-893q0 -172 72 -258q102 -119 294.5 -119t295.5 119q72 86 71 258v893h137v-883q0 -131 -26.5 -215t-91.5 -149q-139 -139 -385 -139t-385 139q-66 66 -92.5 148.5t-26.5 215.5zM633 1470l139 254h164l-205 -254h-98z" />
<glyph unicode="&#xdb;" horiz-adv-x="1335" d="M164 483v883h137v-893q0 -172 72 -258q102 -119 294.5 -119t295.5 119q72 86 71 258v893h137v-883q0 -131 -26.5 -215t-91.5 -149q-139 -139 -385 -139t-385 139q-66 66 -92.5 148.5t-26.5 215.5zM406 1468l217 258h141l219 -258h-139l-150 181l-151 -181h-137z" />
<glyph unicode="&#xdc;" horiz-adv-x="1335" d="M164 483v883h137v-893q0 -172 72 -258q102 -119 294.5 -119t295.5 119q72 86 71 258v893h137v-883q0 -131 -26.5 -215t-91.5 -149q-139 -139 -385 -139t-385 139q-66 66 -92.5 148.5t-26.5 215.5zM379 1507v179h149v-179h-149zM850 1507v179h149v-179h-149z" />
<glyph unicode="&#xdd;" horiz-adv-x="1165" d="M0 1366h160l426 -647l420 647h157l-514 -768v-598h-129v598zM561 1470l139 254h164l-205 -254h-98z" />
<glyph unicode="&#xde;" horiz-adv-x="1183" d="M164 0v1366h137v-281h385q213 0 318 -90q113 -98 112.5 -294.5t-112.5 -294.5q-104 -90 -318 -91h-385v-315h-137zM301 432h330q184 0 264 64q84 68 84 205t-84 204q-80 63 -264 64h-330v-537z" />
<glyph unicode="&#xdf;" horiz-adv-x="1038" d="M150 0v989q0 215 106 307q102 86 260 86t256 -90t98 -237q0 -182 -174 -277q248 -86 248 -362q0 -199 -110.5 -314.5t-303.5 -115.5q-57 0 -143 14v117q70 -23 129 -23q139 0 222 85t83 231q0 307 -354 307h-53v98h51q137 0 210 59.5t73 174.5q0 100 -66 162.5t-172 62.5 q-109 0 -170 -62q-39 -37 -53.5 -88t-14.5 -153v-971h-122z" />
<glyph unicode="&#xe0;" horiz-adv-x="1052" d="M88 258q0 137 90 213q70 61 219 84l293 47q55 10 66.5 23.5t11.5 74.5q0 111 -57.5 159t-188.5 48q-129 0 -190.5 -52t-67.5 -167h-131q10 328 397 328q365 0 365 -297v-555q0 -84 51 -84q23 0 60 12v-96q-51 -12 -93 -12q-102 0 -133 82q-8 25 -8 79 q-125 -172 -358 -172q-152 0 -239 77t-87 208zM217 262q0 -84 58.5 -135t158.5 -51q188 0 289 143q49 72 49 180v113l-354 -61q-201 -33 -201 -189zM291 1393h176l158 -260h-107z" />
<glyph unicode="&#xe1;" horiz-adv-x="1052" d="M88 258q0 137 90 213q70 61 219 84l293 47q55 10 66.5 23.5t11.5 74.5q0 111 -57.5 159t-188.5 48q-129 0 -190.5 -52t-67.5 -167h-131q10 328 397 328q365 0 365 -297v-555q0 -84 51 -84q23 0 60 12v-96q-51 -12 -93 -12q-102 0 -133 82q-8 25 -8 79 q-125 -172 -358 -172q-152 0 -239 77t-87 208zM217 262q0 -84 58.5 -135t158.5 -51q188 0 289 143q49 72 49 180v113l-354 -61q-201 -33 -201 -189zM475 1133l158 260h176l-227 -260h-107z" />
<glyph unicode="&#xe2;" horiz-adv-x="1052" d="M88 258q0 137 90 213q70 61 219 84l293 47q55 10 66.5 23.5t11.5 74.5q0 111 -57.5 159t-188.5 48q-129 0 -190.5 -52t-67.5 -167h-131q10 328 397 328q365 0 365 -297v-555q0 -84 51 -84q23 0 60 12v-96q-51 -12 -93 -12q-102 0 -133 82q-8 25 -8 79 q-125 -172 -358 -172q-152 0 -239 77t-87 208zM217 262q0 -84 58.5 -135t158.5 -51q188 0 289 143q49 72 49 180v113l-354 -61q-201 -33 -201 -189zM252 1133l217 260h141l219 -260h-139l-149 182l-152 -182h-137z" />
<glyph unicode="&#xe3;" horiz-adv-x="1052" d="M88 258q0 137 90 213q70 61 219 84l293 47q55 10 66.5 23.5t11.5 74.5q0 111 -57.5 159t-188.5 48q-129 0 -190.5 -52t-67.5 -167h-131q10 328 397 328q365 0 365 -297v-555q0 -84 51 -84q23 0 60 12v-96q-51 -12 -93 -12q-102 0 -133 82q-8 25 -8 79 q-125 -172 -358 -172q-152 0 -239 77t-87 208zM217 262q0 -84 58.5 -135t158.5 -51q188 0 289 143q49 72 49 180v113l-354 -61q-201 -33 -201 -189zM242 1169q18 178 145 179q31 0 70 -13l168 -53q39 -12 53 -12q45 0 63 69h95q-8 -82 -49.5 -132t-100.5 -50q-27 0 -88 19 l-154 49q-29 10 -45 10q-49 0 -61 -66h-96z" />
<glyph unicode="&#xe4;" horiz-adv-x="1052" d="M88 258q0 137 90 213q70 61 219 84l293 47q55 10 66.5 23.5t11.5 74.5q0 111 -57.5 159t-188.5 48q-129 0 -190.5 -52t-67.5 -167h-131q10 328 397 328q365 0 365 -297v-555q0 -84 51 -84q23 0 60 12v-96q-51 -12 -93 -12q-102 0 -133 82q-8 25 -8 79 q-125 -172 -358 -172q-152 0 -239 77t-87 208zM217 262q0 -84 58.5 -135t158.5 -51q188 0 289 143q49 72 49 180v113l-354 -61q-201 -33 -201 -189zM287 1174v178h129v-178h-129zM625 1174v178h129v-178h-129z" />
<glyph unicode="&#xe5;" horiz-adv-x="1052" d="M88 258q0 137 90 213q70 61 219 84l293 47q55 10 66.5 23.5t11.5 74.5q0 111 -57.5 159t-188.5 48q-129 0 -190.5 -52t-67.5 -167h-131q10 328 397 328q365 0 365 -297v-555q0 -84 51 -84q23 0 60 12v-96q-51 -12 -93 -12q-102 0 -133 82q-8 25 -8 79 q-125 -172 -358 -172q-152 0 -239 77t-87 208zM217 262q0 -84 58.5 -135t158.5 -51q188 0 289 143q49 72 49 180v113l-354 -61q-201 -33 -201 -189zM369 1292q0 70 50 120t120 50q72 0 122 -50t50 -124q0 -68 -50.5 -118t-120 -50t-120.5 50.5t-51 121.5zM444 1292 q0 -39 28 -67.5t69 -28.5q39 0 66.5 27.5t27.5 66.5t-27.5 67.5t-66.5 28.5t-68 -27.5t-29 -66.5z" />
<glyph unicode="&#xe6;" horiz-adv-x="1665" d="M88 266q0 86 45 154.5t121 97.5q82 31 299 53q143 14 166.5 29.5t23.5 87.5t-16 111q-47 109 -221 108q-244 0 -258 -217h-121q18 158 118.5 242t270.5 84q111 0 183.5 -38t134.5 -126q78 88 151.5 126t169.5 38q135 0 232.5 -67.5t142.5 -192.5q41 -109 41 -287h-721 q8 -166 49 -238q86 -147 260 -147q102 0 181 61.5t104 161.5h121q-121 -334 -416 -334q-229 0 -354 217q-74 -117 -160 -167t-211 -50q-156 0 -246 79t-90 214zM217 266q0 -88 56.5 -136t156.5 -48q147 0 228 82t79 231l-2 113q-68 -18 -162 -29q-195 -25 -254 -51 q-102 -47 -102 -162zM852 567h594q-4 162 -81 251t-212 89q-94 0 -170 -47t-104 -123q-25 -61 -27 -170z" />
<glyph unicode="&#xe7;" horiz-adv-x="1013" d="M94 492q0 238 124 381t329 143q162 0 267.5 -90t125.5 -244h-125q-18 106 -91 165.5t-183 59.5q-150 0 -237 -109.5t-87 -295.5q0 -193 88 -306.5t240 -113.5q115 0 187.5 68.5t92.5 195.5h119q-27 -176 -134.5 -274.5t-270.5 -98.5q-203 0 -324 141.5t-121 377.5z M457 -68h157v-139q0 -98 -33.5 -145t-123.5 -74v82q76 25 69 113h-69v163z" />
<glyph unicode="&#xe8;" horiz-adv-x="1052" d="M94 489q0 236 122 381.5t319 145.5q143 0 247.5 -76t143.5 -205q33 -106 32 -260h-741q6 -186 92 -289.5t234 -103.5q215 0 291 227h124q-104 -336 -419 -336q-205 0 -325 139t-120 377zM223 573h611q-10 158 -87 246t-208 88q-129 0 -211 -86t-105 -248zM264 1393h176 l158 -260h-106z" />
<glyph unicode="&#xe9;" horiz-adv-x="1052" d="M94 489q0 236 122 381.5t319 145.5q143 0 247.5 -76t143.5 -205q33 -106 32 -260h-741q6 -186 92 -289.5t234 -103.5q215 0 291 227h124q-104 -336 -419 -336q-205 0 -325 139t-120 377zM223 573h611q-10 158 -87 246t-208 88q-129 0 -211 -86t-105 -248zM489 1133 l158 260h176l-227 -260h-107z" />
<glyph unicode="&#xea;" horiz-adv-x="1052" d="M94 489q0 236 122 381.5t319 145.5q143 0 247.5 -76t143.5 -205q33 -106 32 -260h-741q6 -186 92 -289.5t234 -103.5q215 0 291 227h124q-104 -336 -419 -336q-205 0 -325 139t-120 377zM223 573h611q-10 158 -87 246t-208 88q-129 0 -211 -86t-105 -248zM258 1133 l217 260h141l220 -260h-140l-149 182l-152 -182h-137z" />
<glyph unicode="&#xeb;" horiz-adv-x="1052" d="M94 489q0 236 122 381.5t319 145.5q143 0 247.5 -76t143.5 -205q33 -106 32 -260h-741q6 -186 92 -289.5t234 -103.5q215 0 291 227h124q-104 -336 -419 -336q-205 0 -325 139t-120 377zM223 573h611q-10 158 -87 246t-208 88q-129 0 -211 -86t-105 -248zM307 1174v178 h129v-178h-129zM645 1174v178h129v-178h-129z" />
<glyph unicode="&#xec;" horiz-adv-x="423" d="M-66 1393h177l157 -260h-106zM150 0v989h122v-989h-122z" />
<glyph unicode="&#xed;" horiz-adv-x="423" d="M150 0v989h122v-989h-122zM174 1133l158 260h176l-227 -260h-107z" />
<glyph unicode="&#xee;" horiz-adv-x="423" d="M-78 1133l217 260h142l219 -260h-140l-149 182l-152 -182h-137zM150 0v989h122v-989h-122z" />
<glyph unicode="&#xef;" horiz-adv-x="423" d="M8 1174v178h117v-178h-117zM150 0v989h122v-989h-122zM313 1174v178h117v-178h-117z" />
<glyph unicode="&#xf0;" horiz-adv-x="1105" d="M94 492q0 238 124 381t329 143q147 0 246 -86q-68 162 -207 260l-90 -125l-82 57l86 121q-47 27 -117 55l41 103q82 -29 143 -62l92 131l84 -57l-90 -127q172 -121 265.5 -319.5t93.5 -444.5q0 -256 -123 -402.5t-338 -146.5q-213 0 -335 138.5t-122 380.5zM223 495.5 q0 -192.5 88 -303t240 -110.5q150 0 241 112.5t91 294.5q0 193 -90.5 305.5t-243.5 112.5q-152 0 -239 -109.5t-87 -302z" />
<glyph unicode="&#xf1;" horiz-adv-x="1056" d="M150 0v989h122v-139q59 88 131 127t179 39q170 0 260 -103q66 -78 65 -237v-676h-123v647q0 137 -47 193q-57 68 -170 67q-133 0 -215 -86q-80 -80 -80 -239v-582h-122zM266 1169q18 178 146 179q31 0 69 -13l168 -53q39 -12 53 -12q45 0 64 69h94q-8 -82 -49 -132 t-100 -50q-27 0 -88 19l-154 49q-29 10 -45 10q-49 0 -62 -66h-96z" />
<glyph unicode="&#xf2;" horiz-adv-x="1099" d="M94 496q0 233 125 376.5t330 143.5q209 0 333 -143.5t124 -385.5q0 -229 -126 -371.5t-329 -142.5q-205 0 -331 143.5t-126 379.5zM223 496q0 -188 89 -301t236.5 -113t238 111.5t90.5 295.5q0 193 -88.5 305.5t-239.5 112.5q-147 0 -236.5 -112.5t-89.5 -298.5z M274 1393h177l157 -260h-106z" />
<glyph unicode="&#xf3;" horiz-adv-x="1099" d="M94 496q0 233 125 376.5t330 143.5q209 0 333 -143.5t124 -385.5q0 -229 -126 -371.5t-329 -142.5q-205 0 -331 143.5t-126 379.5zM223 496q0 -188 89 -301t236.5 -113t238 111.5t90.5 295.5q0 193 -88.5 305.5t-239.5 112.5q-147 0 -236.5 -112.5t-89.5 -298.5z M506 1133l158 260h176l-228 -260h-106z" />
<glyph unicode="&#xf4;" horiz-adv-x="1099" d="M94 496q0 233 125 376.5t330 143.5q209 0 333 -143.5t124 -385.5q0 -229 -126 -371.5t-329 -142.5q-205 0 -331 143.5t-126 379.5zM223 496q0 -188 89 -301t236.5 -113t238 111.5t90.5 295.5q0 193 -88.5 305.5t-239.5 112.5q-147 0 -236.5 -112.5t-89.5 -298.5z M274 1133l218 260h141l219 -260h-139l-150 182l-151 -182h-138z" />
<glyph unicode="&#xf5;" horiz-adv-x="1099" d="M94 496q0 233 125 376.5t330 143.5q209 0 333 -143.5t124 -385.5q0 -229 -126 -371.5t-329 -142.5q-205 0 -331 143.5t-126 379.5zM223 496q0 -188 89 -301t236.5 -113t238 111.5t90.5 295.5q0 193 -88.5 305.5t-239.5 112.5q-147 0 -236.5 -112.5t-89.5 -298.5z M287 1169q18 178 145 179q31 0 70 -13l168 -53q39 -12 53 -12q45 0 63 69h95q-8 -82 -49 -132t-101 -50q-27 0 -88 19l-154 49q-29 10 -45 10q-49 0 -61 -66h-96z" />
<glyph unicode="&#xf6;" horiz-adv-x="1099" d="M94 496q0 233 125 376.5t330 143.5q209 0 333 -143.5t124 -385.5q0 -229 -126 -371.5t-329 -142.5q-205 0 -331 143.5t-126 379.5zM223 496q0 -188 89 -301t236.5 -113t238 111.5t90.5 295.5q0 193 -88.5 305.5t-239.5 112.5q-147 0 -236.5 -112.5t-89.5 -298.5z M330 1174v178h129v-178h-129zM668 1174v178h129v-178h-129z" />
<glyph unicode="&#xf7;" d="M51 653v76h920v-76h-920zM436 309q0 31 21.5 52.5t52.5 21.5t52.5 -21.5t21.5 -52t-21.5 -52t-52.5 -21.5t-52.5 22t-21.5 51zM438 1071q0 31 21.5 52.5t52.5 21.5t52.5 -21.5t21.5 -52.5t-21.5 -52.5t-52.5 -21.5q-29 0 -51.5 21.5t-22.5 52.5z" />
<glyph unicode="&#xf8;" horiz-adv-x="1099" d="M82 18l115 127q-102 137 -103 351q0 233 126 376.5t331 143.5q186 0 311 -123l90 102l68 -61l-100 -111q86 -133 86 -329q0 -233 -125 -377t-330 -144q-172 0 -295 105l-106 -121zM223 496q1 -154 60 -254l499 561q-92 104 -233 104q-147 0 -236.5 -112.5t-89.5 -298.5z M336 168q86 -86 215 -86q147 0 236.5 112.5t89.5 299.5q0 133 -46 231z" />
<glyph unicode="&#xf9;" horiz-adv-x="1056" d="M150 313v676h122v-647q0 -137 47 -192q57 -68 170 -68q133 0 216 86q80 80 79 240v581h123v-989h-123v139q-59 -88 -130.5 -127t-178.5 -39q-170 1 -260 103q-66 78 -65 237zM266 1393h176l158 -260h-106z" />
<glyph unicode="&#xfa;" horiz-adv-x="1056" d="M150 313v676h122v-647q0 -137 47 -192q57 -68 170 -68q133 0 216 86q80 80 79 240v581h123v-989h-123v139q-59 -88 -130.5 -127t-178.5 -39q-170 1 -260 103q-66 78 -65 237zM494 1133l157 260h176l-227 -260h-106z" />
<glyph unicode="&#xfb;" horiz-adv-x="1056" d="M150 313v676h122v-647q0 -137 47 -192q57 -68 170 -68q133 0 216 86q80 80 79 240v581h123v-989h-123v139q-59 -88 -130.5 -127t-178.5 -39q-170 1 -260 103q-66 78 -65 237zM254 1133l217 260h141l219 -260h-139l-149 182l-152 -182h-137z" />
<glyph unicode="&#xfc;" horiz-adv-x="1056" d="M150 313v676h122v-647q0 -137 47 -192q57 -68 170 -68q133 0 216 86q80 80 79 240v581h123v-989h-123v139q-59 -88 -130.5 -127t-178.5 -39q-170 1 -260 103q-66 78 -65 237zM307 1174v178h129v-178h-129zM645 1174v178h129v-178h-129z" />
<glyph unicode="&#xfd;" horiz-adv-x="905" d="M14 989h133l236 -616q49 -131 72 -238q12 59 80 240l229 614h129l-438 -1118q-47 -121 -99.5 -166t-146.5 -45q-35 0 -86 8v107q49 -6 70 -6q51 0 83.5 27.5t61.5 99.5l53 131zM430 1133l158 260h176l-227 -260h-107z" />
<glyph unicode="&#xfe;" horiz-adv-x="1120" d="M150 -313v1679h122v-518q127 168 324 168q195 0 311.5 -139.5t116.5 -368.5q0 -238 -120 -386.5t-312 -148.5q-100 0 -173 39t-147 133v-458h-122zM272 500q0 -197 83 -307.5t233 -110.5q145 0 229 110.5t84 303.5q0 190 -84 300.5t-229.5 110.5t-230.5 -109.5 t-85 -297.5z" />
<glyph unicode="&#xff;" horiz-adv-x="905" d="M14 989h133l236 -616q49 -131 72 -238q12 59 80 240l229 614h129l-438 -1118q-47 -121 -99.5 -166t-146.5 -45q-35 0 -86 8v107q49 -6 70 -6q51 0 83.5 27.5t61.5 99.5l53 131zM248 1174v178h129v-178h-129zM586 1174v178h129v-178h-129z" />
<glyph unicode="&#x152;" horiz-adv-x="2084" d="M106 674q0 328 167 525.5t442 197.5q213 0 354 -160v129h913v-117h-776v-493h713v-109h-713v-530h795v-117h-932v143q-68 -94 -149.5 -134t-202.5 -40q-143 0 -269 62.5t-208 173.5q-133 180 -134 469zM244 690q0 -272 129 -438t342 -166q96 0 180 41t127 109 q31 45 39 93t8 179v430q0 154 -70 231q-98 111 -282 111q-215 0 -344 -161t-129 -429z" />
<glyph unicode="&#x153;" horiz-adv-x="1765" d="M94 494q0 236 120 379t318 143q174 0 279 -98q41 -35 88 -125q143 223 367 223q127 0 221 -65.5t141 -188.5q37 -98 43 -291h-715v-29q0 -158 86 -259t224 -101q100 0 176 60.5t110 164.5l115 -4q-104 -330 -407 -330q-123 0 -210 54.5t-159 175.5q-111 -229 -361 -230 q-201 0 -318.5 140.5t-117.5 380.5zM217 502q0 -205 80.5 -312.5t232.5 -107.5q145 0 229.5 105.5t84.5 291.5q0 211 -80 319.5t-232 108.5q-139 0 -229 -102q-86 -100 -86 -303zM958 571h586q-2 156 -76.5 246t-203.5 90q-127 0 -208.5 -89t-97.5 -247z" />
<glyph unicode="&#x178;" horiz-adv-x="1165" d="M0 1366h160l426 -647l420 647h157l-514 -768v-598h-129v598zM301 1507v179h150v-179h-150zM772 1507v179h150v-179h-150z" />
<glyph unicode="&#x2c6;" d="M223 1133l217 260h142l219 -260h-139l-150 182l-152 -182h-137z" />
<glyph unicode="&#x2dc;" d="M215 1169q18 178 145 179q29 0 70 -13l168 -53q39 -12 53 -12q45 0 64 69h94q-8 -82 -49 -132t-101 -50q-27 0 -88 19l-153 49q-29 10 -45 10q-49 0 -62 -66h-96z" />
<glyph unicode="&#x2000;" horiz-adv-x="873" />
<glyph unicode="&#x2001;" horiz-adv-x="1747" />
<glyph unicode="&#x2002;" horiz-adv-x="873" />
<glyph unicode="&#x2003;" horiz-adv-x="1747" />
<glyph unicode="&#x2004;" horiz-adv-x="582" />
<glyph unicode="&#x2005;" horiz-adv-x="436" />
<glyph unicode="&#x2006;" horiz-adv-x="291" />
<glyph unicode="&#x2007;" horiz-adv-x="291" />
<glyph unicode="&#x2008;" horiz-adv-x="218" />
<glyph unicode="&#x2009;" horiz-adv-x="349" />
<glyph unicode="&#x200a;" horiz-adv-x="97" />
<glyph unicode="&#x2010;" horiz-adv-x="495" d="M0 446v117h496v-117h-496z" />
<glyph unicode="&#x2011;" horiz-adv-x="495" d="M0 446v117h496v-117h-496z" />
<glyph unicode="&#x2012;" horiz-adv-x="495" d="M0 446v117h496v-117h-496z" />
<glyph unicode="&#x2013;" horiz-adv-x="1146" d="M127 446v117h895v-117h-895z" />
<glyph unicode="&#x2014;" horiz-adv-x="1327" d="M0 446v117h1327v-117h-1327z" />
<glyph unicode="&#x2018;" horiz-adv-x="475" d="M150 889v223q0 223 174 254v-92q-47 -14 -65.5 -54t-16.5 -126h82v-205h-174z" />
<glyph unicode="&#x2019;" horiz-adv-x="475" d="M150 891v92q47 16 65 54t16 124h-81v205h174v-223q0 -221 -174 -252z" />
<glyph unicode="&#x201a;" horiz-adv-x="475" d="M150 0v205h174v-223q0 -221 -174 -252v92q47 16 65 54t16 124h-81z" />
<glyph unicode="&#x201c;" horiz-adv-x="794" d="M150 889v223q0 223 174 254v-92q-47 -14 -65.5 -54t-16.5 -126h82v-205h-174zM469 889v223q0 223 174 254v-92q-47 -14 -65.5 -54t-16.5 -126h82v-205h-174z" />
<glyph unicode="&#x201d;" horiz-adv-x="794" d="M150 891v92q47 16 65 54t16 124h-81v205h174v-223q0 -221 -174 -252zM469 891v92q47 16 65.5 54t16.5 124h-82v205h174v-223q0 -221 -174 -252z" />
<glyph unicode="&#x201e;" horiz-adv-x="794" d="M150 0v205h174v-223q0 -221 -174 -252v92q47 16 65 54t16 124h-81zM469 0v205h174v-223q0 -221 -174 -252v92q47 16 65.5 54t16.5 124h-82z" />
<glyph unicode="&#x2022;" horiz-adv-x="1366" d="M401 692q0 119 84 202t205 83q113 0 196 -84t83 -199q0 -119 -83 -201.5t-200 -82.5t-201 82.5t-84 199.5z" />
<glyph unicode="&#x2026;" horiz-adv-x="1423" d="M150 0v205h174v-205h-174zM625 0v205h174v-205h-174zM1098 0v205h174v-205h-174z" />
<glyph unicode="&#x202f;" horiz-adv-x="349" />
<glyph unicode="&#x2039;" horiz-adv-x="542" d="M96 449v110l332 283v-148l-231 -190l231 -191v-147z" />
<glyph unicode="&#x203a;" horiz-adv-x="542" d="M117 166v147l231 191l-231 190v148l332 -283v-110z" />
<glyph unicode="&#x205f;" horiz-adv-x="436" />
<glyph unicode="&#x20ac;" horiz-adv-x="1505" d="M127 543l37 92h143v49v43h-180l37 92h151q39 268 206 423t417 155q268 0 442 -178l-55 -134q-141 195 -385 195q-193 0 -325 -125t-162 -336h772l-35 -92h-746v-45v-47h709l-35 -92h-663q29 -207 162 -332t323 -125q246 0 389 201v-187q-164 -131 -389 -131 q-250 0 -418 155t-205 419h-190z" />
<glyph unicode="&#x2122;" horiz-adv-x="1693" d="M18 1284v82h639v-82h-268v-737h-100v737h-271zM788 547v819h121l277 -704l280 704h117v-819h-96v221q0 106 4 430l-260 -651h-90l-262 659q6 -205 6 -387v-272h-97z" />
<glyph unicode="&#xe000;" horiz-adv-x="993" d="M0 0v993h993v-993h-993z" />
</font>
</defs>
</svg>
