<svg xmlns="http://www.w3.org/2000/svg" viewBox="0 0 105 19"><title>Bozzuto</title><path d="M70.8 13.56V0.3h1.34v13.46c0 2.73 1.32 4.12 3.92 4.12 2.49 0 3.92-1.5 3.92-4.11V0.3h1.34v13.26c0 3.45-1.91 5.44-5.25 5.44C72.57 19 70.8 17.17 70.8 13.56z"/><polygon points="69.4 17.48 59.99 17.48 69.28 1.56 69.3 1.53 69.3 0.3 59.1 0.3 59.1 1.52 67.86 1.52 58.55 17.47 58.55 18.69 69.4 18.69 "/><polygon points="57.17 17.48 47.75 17.48 57.06 1.53 57.06 0.3 46.86 0.3 46.86 1.52 55.63 1.52 46.32 17.47 46.32 18.69 57.17 18.69 "/><path d="M40.6 0c-4.05 0-6.11 3.2-6.11 9.5 0 6.39 2 9.5 6.11 9.5 2.78 0 6.08-1.65 6.08-9.5C46.68 3.02 44.75 0 40.6 0zM40.6 17.88c-3.3 0-4.77-2.58-4.77-8.38 0-5.56 1.61-8.38 4.77-8.38 3.24 0 4.75 2.66 4.75 8.38C45.34 15.3 43.88 17.88 40.6 17.88z"/><path d="M98.72 0c-4.05 0-6.11 3.2-6.11 9.5 0 6.39 2 9.5 6.11 9.5 2.78 0 6.09-1.65 6.09-9.5C104.81 3.02 102.87 0 98.72 0zM98.72 17.88c-3.3 0-4.77-2.58-4.77-8.38 0-5.56 1.61-8.38 4.77-8.38 3.24 0 4.75 2.66 4.75 8.38C103.47 15.3 102.01 17.88 98.72 17.88z"/><polygon points="87.12 18.69 88.46 18.69 88.46 1.52 93.39 1.52 93.39 0.3 82.2 0.3 82.2 1.52 87.12 1.52 "/><path d="M29.92 9.02c1.87-0.47 2.92-1.92 2.92-4.07 0-3.13-1.64-4.65-5.02-4.65h-5.15v18.39h5.31c3.37 0 5.46-1.94 5.46-5.05C33.44 11.15 32.11 9.43 29.92 9.02zM24.03 1.42h3.93c2.38 0 3.54 1.16 3.54 3.53 0 3.1-2.51 3.56-4.01 3.56h-3.46V1.42zM27.59 17.58h-3.56V9.62h3.51c3.11 0 4.56 1.27 4.56 3.99C32.09 16.39 30.74 17.58 27.59 17.58z"/><polygon points="17.18 12.35 10.52 12.35 13.85 6.65 10.34 0.63 0 18.37 20.68 18.37 "/></svg>
